<mxfile host="app.diagrams.net" modified="2023-07-26T09:36:53.900Z" agent="Mozilla/5.0 (Windows NT 10.0; Win64; x64) AppleWebKit/537.36 (KHTML, like Gecko) Chrome/115.0.0.0 Safari/537.36" version="21.6.5" etag="qr_F3jlotZQ_Q_HmWDfQ" type="github">
  <diagram name="PÃ¡gina-1" id="QqS2uS2H2h7MRhXDh506">
    <mxGraphModel>
      <root>
        <mxCell id="0" />
        <mxCell id="1" parent="0" />
      </root>
    </mxGraphModel>
  </diagram>
</mxfile>
